# xmcd
# 
# Track frame offsets:
#     150
#     12554
#     24351
#     36629
#     48427
#     58784
#     68712
#     79765
#     91022
#     101845
#     112101
#     124804
#     137091
#     149199
#     159663
#     174117
#     186313
#     199451
#     211472
#     223729
#     235183
#     248400
#     259303
#     270328
#     281988
# 
# Disc length: 3937
# 
# Revision: 2
# Processed by: cddbd v1.5.2PL0 Copyright (c) Steve Scherf et al.
# Submitted via: fre:ac v1.0.17
# 
DISCID=840f5f19
DTITLE=Various Artist - Country's Greatest Hits [CD 1)
DYEAR=2007
DGENRE=Country
TTITLE0=Johnny Cash - I Walk The Line
TTITLE1=Tennessee Ernie Ford - Sixteen Tons
TTITLE2=Hank Williams - Your Cheatin' Heart
TTITLE3=Jim Reeves - According To My Heart
TTITLE4=Chet Atkins - Mister Sandman
TTITLE5=Patsy Cline - Turn The Cards Slowly
TTITLE6=Marty Robbins - Singing The Blues
TTITLE7=Hank Locklin - Let Me Be The One
TTITLE8=Slim Whitman - Rose Marie
TTITLE9=George Jones - Why Baby Why?
TTITLE10=Hank Snow - I'm Movin' On
TTITLE11=Lester Flatt and Earl Scruggs - Foggy Mountain Breakdown
TTITLE12=Faron Young - Goin' Steady
TTITLE13=Webb Pierce - It's Been So Long
TTITLE14=Red Foley - Midnight
TTITLE15=Ray Price - Talk To Your Heart
TTITLE16=Hank Williams - Hey Good Lookin'
TTITLE17=Jim Reeves - Mexican Joe
TTITLE18=Hank Thompson - The Wild Side Of Life
TTITLE19=Kitty Wells - It Wasn't God Who Made Honky Tonk Angels
TTITLE20=George Morgan - Candy Kisses
TTITLE21=Johnny Cash - Cry, Cry, Cry
TTITLE22=Carl Perkins - Dixie Fried
TTITLE23=Tennessee Ernie Ford - The Shotgun Boogie
TTITLE24=Little Jimmy Dickens - Hillbilly Fever
EXTD=
EXTT0=
EXTT1=
EXTT2=
EXTT3=
EXTT4=
EXTT5=
EXTT6=
EXTT7=
EXTT8=
EXTT9=
EXTT10=
EXTT11=
EXTT12=
EXTT13=
EXTT14=
EXTT15=
EXTT16=
EXTT17=
EXTT18=
EXTT19=
EXTT20=
EXTT21=
EXTT22=
EXTT23=
EXTT24=
PLAYORDER=
